<svg width="112" height="112" viewBox="0 0 112 112" fill="none" xmlns="http://www.w3.org/2000/svg">
<g filter="url(#filter0_d_20_65)">
<rect x="18" y="12" width="80" height="80" rx="40" fill="#282F65"/>
</g>
<path d="M53.6898 56.35H56.6967V57.1H53.6898V56.35Z" fill="white"/>
<path d="M46.9242 64.6H49.9311V67.6H46.9242V64.6Z" fill="white"/>
<path d="M58.2002 58.6H61.2071V59.35H58.2002V58.6Z" fill="white"/>
<path d="M53.6898 58.6H56.6967V59.35H53.6898V58.6Z" fill="white"/>
<path d="M70.2279 45.5394V37.6H65.7175V41.0394L70.2279 45.5394Z" fill="white"/>
<path d="M55.8 38.934L55.8569 38.8772C56.7371 38.0027 58.1598 38.0027 59.04 38.8772L74.1422 53.9446C74.4721 54.2716 75.0044 54.2716 75.3344 53.9446C75.6629 53.6158 75.6629 53.084 75.3344 52.7552L57.9748 35.4378C57.6819 35.1488 57.2106 35.1488 56.9177 35.4378L55.3081 37.0432C55.531 37.657 55.6954 38.2898 55.8 38.934Z" fill="white"/>
<path d="M45.4208 49.6C50.4028 49.6 54.4415 45.5706 54.4415 40.6C54.4415 35.6294 50.4028 31.6 45.4208 31.6C40.4387 31.6 36.4 35.6294 36.4 40.6C36.4055 45.5684 40.4409 49.5945 45.4208 49.6ZM42.4138 42.85H43.9173V43.6C43.9173 44.0142 44.2539 44.35 44.669 44.35H46.1725C46.5876 44.35 46.9242 44.0142 46.9242 43.6V42.1C46.9242 41.6858 46.5876 41.35 46.1725 41.35H44.669C43.4236 41.35 42.4138 40.3425 42.4138 39.1V37.6C42.4138 36.3574 43.4236 35.35 44.669 35.35V33.85H46.1725V35.35C47.4179 35.35 48.4277 36.3574 48.4277 37.6V38.35H46.9242V37.6C46.9242 37.1858 46.5876 36.85 46.1725 36.85H44.669C44.2539 36.85 43.9173 37.1858 43.9173 37.6V39.1C43.9173 39.5142 44.2539 39.85 44.669 39.85H46.1725C47.4179 39.85 48.4277 40.8574 48.4277 42.1V43.6C48.4277 44.8425 47.4179 45.85 46.1725 45.85V47.35H44.669V45.85C43.4236 45.85 42.4138 44.8425 42.4138 43.6V42.85Z" fill="#C0DFF8"/>
<path d="M58.2002 56.35H61.2071V57.1H58.2002V56.35Z" fill="white"/>
<path d="M64.214 34.6H71.7313V36.1H64.214V34.6Z" fill="white"/>
<path d="M61.2071 73.6V63.1H53.6898V73.6H61.2071ZM54.4415 68.35H55.1933V66.85H54.4415V65.35H55.945C56.3601 65.35 56.6967 65.6858 56.6967 66.1V69.1C56.6967 69.5142 56.3601 69.85 55.945 69.85H54.4415V68.35Z" fill="white"/>
<path d="M39.5626 52.7553C39.2348 53.0845 39.2348 53.6155 39.5626 53.9447C39.8922 54.2725 40.4251 54.2725 40.7547 53.9447L43.7503 50.9561C43.105 50.8524 42.4704 50.6891 41.8552 50.4679L39.5626 52.7553Z" fill="white"/>
<path d="M45.7485 51.0836L45.732 51.1001H69.1649L57.9748 39.938C57.6819 39.6491 57.2106 39.6491 56.9177 39.938L55.9263 40.9272C55.7475 46.4599 51.294 50.9042 45.7485 51.0836Z" fill="white"/>
<path d="M75.49 71.35C75.0748 71.35 74.7383 71.0142 74.7383 70.6C74.7383 69.3574 73.7285 68.35 72.4831 68.35C71.2376 68.35 70.2279 69.3574 70.2279 70.6C70.2312 70.7926 70.2598 70.9841 70.3127 71.1691C70.374 71.3994 70.3218 71.6444 70.1728 71.8301C70.0234 72.0157 69.7947 72.1198 69.5565 72.1106C69.5312 72.1106 69.4552 72.1014 69.4295 72.0985C68.4891 72.1128 67.6581 72.7119 67.3494 73.5985H78.4C78.0553 72.2761 76.8595 71.3522 75.49 71.35Z" fill="white"/>
<path d="M43.1651 71.3499C43.1313 71.3591 43.0965 71.3631 43.0612 71.3627C42.7287 71.3832 42.4244 71.1763 42.3216 70.8603C42.0838 70.1685 41.3786 69.7499 40.6559 69.8715C39.9328 69.9931 39.4042 70.6186 39.4064 71.3499C39.4086 71.5781 39.4637 71.8026 39.5672 72.0062C39.7093 72.2944 39.6516 72.6408 39.4241 72.8679C39.1961 73.0949 38.8485 73.1517 38.56 73.0096C37.8542 72.6643 37.0008 72.9221 36.6054 73.5999H46.0773C45.733 72.2761 44.5361 71.351 43.1651 71.3499Z" fill="white"/>
<path d="M69.4703 68.3807C69.685 68.0922 69.9401 67.8358 70.2279 67.6194V52.6H44.669V70.1111C46.2092 70.6578 47.3335 71.9919 47.6091 73.6H52.1863V62.35C52.1863 61.9358 52.5229 61.6 52.9381 61.6H61.9588C62.374 61.6 62.7106 61.9358 62.7106 62.35V73.6H65.8001C66.1014 72.1296 67.2514 70.9794 68.7244 70.675C68.7244 70.6501 68.7244 70.6249 68.7244 70.6C68.7273 70.0375 68.8587 69.4834 69.1087 68.9791C68.9946 69.0546 68.8613 69.0963 68.7244 69.1H64.214C63.7989 69.1 63.4623 68.7642 63.4623 68.35V63.85C63.4623 63.4358 63.7989 63.1 64.214 63.1H68.7244C69.1395 63.1 69.4761 63.4358 69.4761 63.85V68.35C69.4761 68.3613 69.4703 68.3701 69.4703 68.3807ZM51.4346 68.35C51.4346 68.7642 51.098 69.1 50.6829 69.1H46.1725C45.7574 69.1 45.4208 68.7642 45.4208 68.35V63.85C45.4208 63.4358 45.7574 63.1 46.1725 63.1H50.6829C51.098 63.1 51.4346 63.4358 51.4346 63.85V68.35ZM62.7106 59.35C62.7106 60.1783 62.0374 60.85 61.2071 60.85H53.6898C52.8595 60.85 52.1863 60.1783 52.1863 59.35V56.35C52.1863 55.5216 52.8595 54.85 53.6898 54.85H61.2071C62.0374 54.85 62.7106 55.5216 62.7106 56.35V59.35Z" fill="white"/>
<path d="M64.9658 64.6H67.9727V67.6H64.9658V64.6Z" fill="white"/>
<defs>
<filter id="filter0_d_20_65" x="0" y="0" width="112" height="112" filterUnits="userSpaceOnUse" color-interpolation-filters="sRGB">
<feFlood flood-opacity="0" result="BackgroundImageFix"/>
<feColorMatrix in="SourceAlpha" type="matrix" values="0 0 0 0 0 0 0 0 0 0 0 0 0 0 0 0 0 0 127 0" result="hardAlpha"/>
<feOffset dx="-2" dy="4"/>
<feGaussianBlur stdDeviation="8"/>
<feColorMatrix type="matrix" values="0 0 0 0 0.752941 0 0 0 0 0.87451 0 0 0 0 0.972549 0 0 0 0.8 0"/>
<feBlend mode="normal" in2="BackgroundImageFix" result="effect1_dropShadow_20_65"/>
<feBlend mode="normal" in="SourceGraphic" in2="effect1_dropShadow_20_65" result="shape"/>
</filter>
</defs>
</svg>
