<svg width="112" height="112" viewBox="0 0 112 112" fill="none" xmlns="http://www.w3.org/2000/svg">
<g filter="url(#filter0_d_258_107)">
<rect x="18" y="12" width="80" height="80" rx="40" fill="#282F65"/>
</g>
<path d="M65.9552 64.144L64.8677 63.0565C64.7065 63.2463 64.543 63.4353 64.3637 63.6138C64.1845 63.7923 63.997 63.9565 63.8065 64.1178L64.894 65.2053L65.9552 64.144Z" fill="#C0DFF8"/>
<path d="M43.75 70.7499C43.7142 70.7586 43.6774 70.7629 43.6405 70.7626C43.4798 70.7728 43.3203 70.7288 43.1875 70.6377C43.0547 70.5466 42.9562 70.4137 42.9078 70.2601C42.7932 69.9248 42.5632 69.6411 42.2587 69.4597C41.9543 69.2783 41.5953 69.211 41.2459 69.2699C40.8964 69.3288 40.5793 69.5099 40.3511 69.781C40.1229 70.0521 39.9984 70.3955 40 70.7499C40.0021 70.9778 40.0568 71.2021 40.1598 71.4054C40.2291 71.5459 40.2527 71.7045 40.2273 71.8591C40.2019 72.0137 40.1287 72.1564 40.018 72.2673C39.9073 72.3782 39.7647 72.4516 39.6101 72.4772C39.4556 72.5029 39.2969 72.4795 39.1563 72.4104C38.8165 72.2425 38.4256 72.2101 38.0627 72.3195C37.6999 72.4289 37.3921 72.6721 37.2018 72.9999H46.6518C46.4847 72.3569 46.1094 71.7874 45.5844 71.3803C45.0594 70.9733 44.4143 70.7516 43.75 70.7499Z" fill="white"/>
<path d="M63.8335 67.3262C63.6929 67.1856 63.6139 66.9949 63.6139 66.796C63.6139 66.5971 63.6929 66.4064 63.8335 66.2657L62.5637 64.9952C60.6768 66.1078 58.4488 66.4941 56.2974 66.0815C54.1461 65.6689 52.219 64.4858 50.8775 62.754C49.5361 61.0223 48.8722 58.8607 49.0105 56.6745C49.1488 54.4883 50.0796 52.4276 51.6286 50.8786C53.1776 49.3296 55.2383 48.3988 57.4245 48.2605C59.6107 48.1222 61.7723 48.786 63.5041 50.1275C65.2358 51.469 66.4189 53.396 66.8315 55.5474C67.2441 57.6988 66.8579 59.9268 65.7453 61.8137L67.0158 63.0835C67.1564 62.9429 67.3471 62.8639 67.546 62.8639C67.7449 62.8639 67.9356 62.9429 68.0763 63.0835L70.75 65.7572V51.5605L58.5303 39.3407C58.3877 39.2039 58.1977 39.1274 58 39.1274C57.8023 39.1274 57.6123 39.2039 57.4697 39.3407L45.25 51.5605V69.511C46.0048 69.7796 46.6743 70.2444 47.1899 70.8576C47.7054 71.4708 48.0483 72.2103 48.1832 73H69.508L63.8335 67.3262Z" fill="white"/>
<path d="M57.4698 34.8407L40.1553 52.1552C40.077 52.2333 40.015 52.326 39.9726 52.428C39.9302 52.5301 39.9084 52.6395 39.9084 52.75C39.9084 52.8605 39.9302 52.9699 39.9726 53.072C40.015 53.174 40.077 53.2667 40.1553 53.3447C40.3133 53.5018 40.5271 53.59 40.75 53.59C40.9729 53.59 41.1867 53.5018 41.3448 53.3447L56.4093 38.2802C56.6182 38.0713 56.8663 37.9055 57.1393 37.7924C57.4123 37.6793 57.7049 37.6211 58.0004 37.6211C58.2959 37.6211 58.5885 37.6793 58.8615 37.7924C59.1345 37.9055 59.3826 38.0713 59.5915 38.2802L74.6553 53.3447C74.813 53.5025 75.0269 53.5911 75.25 53.5911C75.4731 53.5911 75.687 53.5025 75.8448 53.3447C76.0025 53.187 76.0911 52.9731 76.0911 52.75C76.0911 52.5269 76.0025 52.313 75.8448 52.1552L58.5303 34.8407C58.3877 34.7039 58.1977 34.6274 58 34.6274C57.8024 34.6274 57.6124 34.7039 57.4698 34.8407Z" fill="white"/>
<path d="M70.75 44.9395V37H66.25V40.4395L70.75 44.9395Z" fill="white"/>
<path d="M67.5374 68.9231L69.659 66.8016L73.901 71.0436L71.7794 73.1651L67.5374 68.9231Z" fill="#C0DFF8"/>
<path d="M65.4173 66.8005L67.5386 64.6792L68.5992 65.7399L66.4779 67.8612L65.4173 66.8005Z" fill="#C0DFF8"/>
<path d="M64.75 34H72.2508V35.5H64.75V34Z" fill="white"/>
<path d="M63.3033 51.9468C62.2544 50.8978 60.918 50.1835 59.4632 49.8941C58.0083 49.6047 56.5003 49.7532 55.1299 50.3209C53.7594 50.8885 52.588 51.8498 51.7639 53.0832C50.9398 54.3166 50.4999 55.7666 50.4999 57.25C50.4999 58.7334 50.9398 60.1834 51.7639 61.4168C52.588 62.6502 53.7594 63.6115 55.1299 64.1791C56.5003 64.7468 58.0083 64.8953 59.4632 64.6059C60.918 64.3165 62.2544 63.6022 63.3033 62.5533C64.0029 61.8586 64.5581 61.0324 64.937 60.1222C65.3158 59.212 65.5109 58.2359 65.5109 57.25C65.5109 56.2641 65.3158 55.288 64.937 54.3778C64.5581 53.4676 64.0029 52.6414 63.3033 51.9468ZM62.2428 61.4928C61.4037 62.3318 60.3346 62.9033 59.1707 63.1347C58.0068 63.3662 56.8004 63.2474 55.7041 62.7933C54.6078 62.3391 53.6707 61.5701 53.0114 60.5834C52.3521 59.5967 52.0003 58.4367 52.0003 57.25C52.0003 56.0633 52.3521 54.9033 53.0114 53.9166C53.6707 52.9299 54.6078 52.1609 55.7041 51.7068C56.8004 51.2526 58.0068 51.1338 59.1707 51.3653C60.3346 51.5968 61.4037 52.1682 62.2428 53.0073C62.8023 53.5631 63.2464 54.2241 63.5494 54.9523C63.8524 55.6804 64.0084 56.4613 64.0084 57.25C64.0084 58.0387 63.8524 58.8196 63.5494 59.5477C63.2464 60.2759 62.8023 60.9369 62.2428 61.4928Z" fill="#C0DFF8"/>
<path d="M61.1823 54.0678C60.5529 53.4385 59.7511 53.01 58.8782 52.8364C58.0053 52.6628 57.1005 52.752 56.2783 53.0926C55.4561 53.4332 54.7533 54.01 54.2589 54.75C53.7645 55.49 53.5005 56.36 53.5005 57.25C53.5005 58.14 53.7645 59.01 54.2589 59.75C54.7533 60.49 55.4561 61.0668 56.2783 61.4074C57.1005 61.748 58.0053 61.8372 58.8782 61.6636C59.7511 61.49 60.5529 61.0615 61.1823 60.4323C61.6019 60.0153 61.935 59.5195 62.1622 58.9734C62.3895 58.4272 62.5065 57.8415 62.5065 57.25C62.5065 56.6585 62.3895 56.0728 62.1622 55.5266C61.935 54.9805 61.6019 54.4847 61.1823 54.0678Z" fill="#C0DFF8"/>
<defs>
<filter id="filter0_d_258_107" x="0" y="0" width="112" height="112" filterUnits="userSpaceOnUse" color-interpolation-filters="sRGB">
<feFlood flood-opacity="0" result="BackgroundImageFix"/>
<feColorMatrix in="SourceAlpha" type="matrix" values="0 0 0 0 0 0 0 0 0 0 0 0 0 0 0 0 0 0 127 0" result="hardAlpha"/>
<feOffset dx="-2" dy="4"/>
<feGaussianBlur stdDeviation="8"/>
<feColorMatrix type="matrix" values="0 0 0 0 0.752941 0 0 0 0 0.87451 0 0 0 0 0.972549 0 0 0 0.8 0"/>
<feBlend mode="normal" in2="BackgroundImageFix" result="effect1_dropShadow_258_107"/>
<feBlend mode="normal" in="SourceGraphic" in2="effect1_dropShadow_258_107" result="shape"/>
</filter>
</defs>
</svg>
