<svg width="16" height="14" viewBox="0 0 16 14" fill="none" xmlns="http://www.w3.org/2000/svg">
<path d="M15.2189 7.02089V6.71617C15.2189 6.15482 14.9283 5.66036 14.4898 5.37442V2.05042C14.4898 1.17586 13.7783 0.464355 12.9038 0.464355H3.09622C2.22166 0.464355 1.51013 1.17586 1.51013 2.05042V5.37439C1.07169 5.66032 0.781062 6.15479 0.781062 6.71614V7.02086C0.332125 7.13907 0 7.54845 0 8.03401V11.5995C0 12.1604 0.443188 12.6197 0.997781 12.6458V13.0678C0.997781 13.3262 1.20725 13.5356 1.46563 13.5356C1.724 13.5356 1.93347 13.3262 1.93347 13.0678V12.6471H14.0665V13.0678C14.0665 13.3262 14.276 13.5356 14.5343 13.5356C14.7927 13.5356 15.0022 13.3262 15.0022 13.0678V12.6458C15.5568 12.6197 16 12.1604 16 11.5995V8.03401C16 7.54842 15.6679 7.13907 15.2189 7.02089ZM2.44584 2.05042C2.44584 1.69179 2.73759 1.40004 3.09622 1.40004H12.9038C13.2624 1.40004 13.5542 1.69179 13.5542 2.05042V5.11501H12.9303V4.29039C12.9303 3.7132 12.4608 3.24361 11.8836 3.24361H9.36613C8.78894 3.24361 8.31934 3.7132 8.31934 4.29039V5.11501H7.68066V4.29039C7.68066 3.7132 7.21106 3.24361 6.63387 3.24361H4.11644C3.53922 3.24361 3.06966 3.7132 3.06966 4.29039V5.11501H2.44584V2.05042ZM11.9946 4.29036V5.00392C11.9946 5.06517 11.9448 5.11498 11.8836 5.11498H9.36613C9.30488 5.11498 9.25506 5.06514 9.25506 5.00392V4.29036C9.25506 4.22911 9.30491 4.17929 9.36613 4.17929H11.8836C11.9448 4.17929 11.9946 4.22911 11.9946 4.29036ZM6.74494 4.29036V5.00392C6.74494 5.06517 6.69509 5.11498 6.63387 5.11498H4.11644C4.05519 5.11498 4.00537 5.06514 4.00537 5.00392V4.29036C4.00537 4.22911 4.05522 4.17929 4.11644 4.17929H6.63387C6.69509 4.17929 6.74494 4.22911 6.74494 4.29036ZM1.71678 6.71614C1.71678 6.3492 2.01531 6.0507 2.38225 6.0507H13.6178C13.9847 6.0507 14.2832 6.34923 14.2832 6.71614V6.98639H1.71678V6.71614ZM15.0643 11.5995C15.0643 11.6612 15.0141 11.7114 14.9524 11.7114H1.04759C0.985906 11.7114 0.935687 11.6612 0.935687 11.5995V8.03401C0.935687 7.97232 0.985875 7.92214 1.04759 7.92214H14.9524C15.0141 7.92214 15.0643 7.97232 15.0643 8.03401V11.5995H15.0643Z" fill="#626262"/>
</svg>
