<svg width="31" height="20" viewBox="0 0 31 20" fill="none" xmlns="http://www.w3.org/2000/svg">
<path d="M19.6248 3.48438H11.7109V16.5131H19.6248V3.48438Z" fill="#FF5F00"/>
<path d="M12.526 10.0005C12.525 8.74599 12.8072 7.50765 13.3511 6.37923C13.895 5.25082 14.6865 4.2619 15.6655 3.48731C14.4529 2.52672 12.9966 1.92938 11.4631 1.76357C9.92966 1.59777 8.38083 1.87017 6.99367 2.54967C5.60651 3.22916 4.43698 4.28832 3.61876 5.6061C2.80054 6.92388 2.36664 8.44711 2.36664 10.0017C2.36664 11.5563 2.80054 13.0795 3.61876 14.3973C4.43698 15.7151 5.60651 16.7742 6.99367 17.4537C8.38083 18.1332 9.92966 18.4056 11.4631 18.2398C12.9966 18.074 14.4529 17.4767 15.6655 16.5161C14.6862 15.7413 13.8945 14.752 13.3506 13.6231C12.8067 12.4943 12.5247 11.2555 12.526 10.0005Z" fill="#EB001B"/>
<path d="M28.1802 15.1357V14.8687H28.2944V14.8135H28.0227V14.8687H28.13V15.1357H28.1802ZM28.7077 15.1357V14.8135H28.6255L28.5296 15.0436L28.4337 14.8135H28.3515V15.1357H28.4108V14.8917L28.4999 15.1012H28.5615L28.6506 14.8917V15.1357H28.7077Z" fill="#F79E1B"/>
<path d="M28.9656 10.0004C28.9656 11.5551 28.5316 13.0784 27.7132 14.3962C26.8948 15.7141 25.7251 16.7732 24.3378 17.4526C22.9505 18.132 21.4015 18.4042 19.8679 18.2382C18.3343 18.0721 16.878 17.4745 15.6655 16.5136C16.6442 15.7383 17.4354 14.7492 17.9795 13.6207C18.5235 12.4922 18.8062 11.2539 18.8062 9.99924C18.8062 8.74456 18.5235 7.50627 17.9795 6.3778C17.4354 5.24932 16.6442 4.26013 15.6655 3.48485C16.878 2.52396 18.3343 1.92633 19.8679 1.76029C21.4015 1.59424 22.9505 1.86647 24.3378 2.54587C25.7251 3.22526 26.8948 4.28441 27.7132 5.60223C28.5316 6.92005 28.9656 8.44338 28.9656 9.99809V10.0004Z" fill="#F79E1B"/>
</svg>
