<svg width="44" height="20" viewBox="0 0 44 20" fill="none" xmlns="http://www.w3.org/2000/svg">
<g clip-path="url(#clip0_272_232)">
<path d="M19.111 17.2952H15.6006L17.7962 3.58154H21.3064L19.111 17.2952Z" fill="#00579F"/>
<path d="M31.8361 3.91685C31.1437 3.63938 30.0455 3.33301 28.6876 3.33301C25.2211 3.33301 22.78 5.20031 22.765 7.86999C22.7362 9.83967 24.5128 10.9337 25.8415 11.5904C27.1996 12.2615 27.6613 12.6996 27.6613 13.2978C27.6474 14.2165 26.5638 14.64 25.5532 14.64C24.1517 14.64 23.4008 14.4216 22.2596 13.9105L21.7974 13.6914L21.3062 16.7698C22.1295 17.1487 23.6463 17.4849 25.2211 17.4997C28.9044 17.4997 31.3023 15.6613 31.3307 12.8163C31.3447 11.2552 30.4066 10.059 28.3842 9.0815C27.1564 8.45403 26.4045 8.03093 26.4045 7.38891C26.4189 6.80526 27.0405 6.20745 28.4264 6.20745C29.5676 6.17817 30.406 6.45526 31.0412 6.73254L31.3587 6.87816L31.8361 3.91685Z" fill="#00579F"/>
<path d="M36.5016 12.437C36.7907 11.6491 37.9031 8.59999 37.9031 8.59999C37.8885 8.62927 38.1916 7.79761 38.3649 7.28706L38.6103 8.46871C38.6103 8.46871 39.275 11.7513 39.4194 12.437C38.8707 12.437 37.195 12.437 36.5016 12.437ZM40.8346 3.58154H38.1194C37.2821 3.58154 36.646 3.82935 36.2847 4.71937L31.0706 17.2951H34.7539C34.7539 17.2951 35.3603 15.6025 35.4906 15.2379C35.8947 15.2379 39.4777 15.2379 39.9975 15.2379C40.0983 15.7194 40.4164 17.2951 40.4164 17.2951H43.6666L40.8346 3.58154Z" fill="#00579F"/>
<path d="M12.6687 3.58154L9.23096 12.933L8.85531 11.0364C8.21974 8.84799 6.22646 6.47033 4.00208 5.2881L7.15093 17.2807H10.863L16.3806 3.58154H12.6687Z" fill="#00579F"/>
<path d="M6.03877 3.58252H0.391031L0.333252 3.85961C4.73884 4.99763 7.65657 7.7408 8.85534 11.038L7.62759 4.73528C7.42546 3.85942 6.80429 3.61141 6.03877 3.58252Z" fill="#FAA61A"/>
</g>
<defs>
<clipPath id="clip0_272_232">
<rect width="43.3333" height="20" fill="white" transform="translate(0.333313)"/>
</clipPath>
</defs>
</svg>
