<svg width="92" height="32" viewBox="0 0 92 32" fill="none" xmlns="http://www.w3.org/2000/svg">
<path d="M44.283 6.479V9.368H35.6295V15.146H42.933V18.0485H35.6295V26H31.971V6.479H44.283ZM57.7971 26H56.2986C55.9836 26 55.7361 25.955 55.5561 25.865C55.3761 25.766 55.2411 25.5725 55.1511 25.2845L54.8541 24.299C54.5031 24.614 54.1566 24.893 53.8146 25.136C53.4816 25.37 53.1351 25.568 52.7751 25.73C52.4151 25.892 52.0326 26.0135 51.6276 26.0945C51.2226 26.1755 50.7726 26.216 50.2776 26.216C49.6926 26.216 49.1526 26.1395 48.6576 25.9865C48.1626 25.8245 47.7351 25.586 47.3751 25.271C47.0241 24.956 46.7496 24.5645 46.5516 24.0965C46.3536 23.6285 46.2546 23.084 46.2546 22.463C46.2546 21.941 46.3896 21.428 46.6596 20.924C46.9386 20.411 47.3976 19.952 48.0366 19.547C48.6756 19.133 49.5261 18.791 50.5881 18.521C51.6501 18.251 52.9686 18.098 54.5436 18.062V17.252C54.5436 16.325 54.3456 15.641 53.9496 15.2C53.5626 14.75 52.9956 14.525 52.2486 14.525C51.7086 14.525 51.2586 14.588 50.8986 14.714C50.5386 14.84 50.2236 14.984 49.9536 15.146C49.6926 15.299 49.4496 15.4385 49.2246 15.5645C48.9996 15.6905 48.7521 15.7535 48.4821 15.7535C48.2571 15.7535 48.0636 15.695 47.9016 15.578C47.7396 15.461 47.6091 15.317 47.5101 15.146L46.9026 14.0795C48.4956 12.6215 50.4171 11.8925 52.6671 11.8925C53.4771 11.8925 54.1971 12.0275 54.8271 12.2975C55.4661 12.5585 56.0061 12.9275 56.4471 13.4045C56.8881 13.8725 57.2211 14.435 57.4461 15.092C57.6801 15.749 57.7971 16.469 57.7971 17.252V26ZM51.3171 23.921C51.6591 23.921 51.9741 23.8895 52.2621 23.8265C52.5501 23.7635 52.8201 23.669 53.0721 23.543C53.3331 23.417 53.5806 23.264 53.8146 23.084C54.0576 22.895 54.3006 22.6745 54.5436 22.4225V20.087C53.5716 20.132 52.7571 20.2175 52.1001 20.3435C51.4521 20.4605 50.9301 20.6135 50.5341 20.8025C50.1381 20.9915 49.8546 21.212 49.6836 21.464C49.5216 21.716 49.4406 21.9905 49.4406 22.2875C49.4406 22.8725 49.6116 23.291 49.9536 23.543C50.3046 23.795 50.7591 23.921 51.3171 23.921ZM65.6254 26.216C64.4284 26.216 63.5059 25.8785 62.8579 25.2035C62.2099 24.5195 61.8859 23.579 61.8859 22.382V14.6465H60.4819C60.3019 14.6465 60.1444 14.588 60.0094 14.471C59.8834 14.354 59.8204 14.1785 59.8204 13.9445V12.6215L62.0479 12.257L62.7499 8.477C62.7859 8.297 62.8669 8.1575 62.9929 8.0585C63.1279 7.9595 63.2944 7.91 63.4924 7.91H65.2204V12.2705H68.8654V14.6465H65.2204V22.1525C65.2204 22.5845 65.3284 22.922 65.5444 23.165C65.7604 23.408 66.0484 23.5295 66.4084 23.5295C66.6154 23.5295 66.7864 23.507 66.9214 23.462C67.0654 23.408 67.1869 23.354 67.2859 23.3C67.3939 23.246 67.4884 23.1965 67.5694 23.1515C67.6504 23.0975 67.7314 23.0705 67.8124 23.0705C67.9114 23.0705 67.9924 23.0975 68.0554 23.1515C68.1184 23.1965 68.1859 23.2685 68.2579 23.3675L69.2569 24.9875C68.7709 25.3925 68.2129 25.6985 67.5829 25.9055C66.9529 26.1125 66.3004 26.216 65.6254 26.216ZM77.4304 11.933C78.4654 11.933 79.4014 12.0995 80.2384 12.4325C81.0844 12.7655 81.8044 13.238 82.3984 13.85C82.9924 14.462 83.4514 15.209 83.7754 16.091C84.0994 16.973 84.2614 17.9585 84.2614 19.0475C84.2614 20.1455 84.0994 21.1355 83.7754 22.0175C83.4514 22.8995 82.9924 23.651 82.3984 24.272C81.8044 24.893 81.0844 25.37 80.2384 25.703C79.4014 26.036 78.4654 26.2025 77.4304 26.2025C76.3954 26.2025 75.4549 26.036 74.6089 25.703C73.7629 25.37 73.0384 24.893 72.4354 24.272C71.8414 23.651 71.3779 22.8995 71.0449 22.0175C70.7209 21.1355 70.5589 20.1455 70.5589 19.0475C70.5589 17.9585 70.7209 16.973 71.0449 16.091C71.3779 15.209 71.8414 14.462 72.4354 13.85C73.0384 13.238 73.7629 12.7655 74.6089 12.4325C75.4549 12.0995 76.3954 11.933 77.4304 11.933ZM77.4304 23.6375C78.5824 23.6375 79.4329 23.2505 79.9819 22.4765C80.5399 21.7025 80.8189 20.5685 80.8189 19.0745C80.8189 17.5805 80.5399 16.442 79.9819 15.659C79.4329 14.876 78.5824 14.4845 77.4304 14.4845C76.2604 14.4845 75.3964 14.8805 74.8384 15.6725C74.2804 16.4555 74.0014 17.5895 74.0014 19.0745C74.0014 20.5595 74.2804 21.6935 74.8384 22.4765C75.3964 23.2505 76.2604 23.6375 77.4304 23.6375Z" fill="#282F65"/>
<path d="M86.0666 24.164C86.0666 23.885 86.1161 23.6195 86.2151 23.3675C86.3231 23.1155 86.4671 22.8995 86.6471 22.7195C86.8361 22.5395 87.0566 22.3955 87.3086 22.2875C87.5606 22.1795 87.8306 22.1255 88.1186 22.1255C88.3976 22.1255 88.6631 22.1795 88.9151 22.2875C89.1671 22.3955 89.3831 22.5395 89.5631 22.7195C89.7431 22.8995 89.8871 23.1155 89.9951 23.3675C90.1031 23.6195 90.1571 23.885 90.1571 24.164C90.1571 24.452 90.1031 24.722 89.9951 24.974C89.8871 25.217 89.7431 25.4285 89.5631 25.6085C89.3831 25.7885 89.1671 25.928 88.9151 26.027C88.6631 26.135 88.3976 26.189 88.1186 26.189C87.8306 26.189 87.5606 26.135 87.3086 26.027C87.0566 25.928 86.8361 25.7885 86.6471 25.6085C86.4671 25.4285 86.3231 25.217 86.2151 24.974C86.1161 24.722 86.0666 24.452 86.0666 24.164Z" fill="#FFA800"/>
<path fill-rule="evenodd" clip-rule="evenodd" d="M20.8281 8.63046C21.069 7.65695 19.8867 6.97433 19.164 7.6697L15.6602 11.0412L10.8475 8.2626C10.2712 7.92984 9.53664 8.2424 9.37679 8.88843L6.02817 22.4217C5.78729 23.3952 6.96963 24.0778 7.69228 23.3825L11.1961 20.0109L16.0088 22.7895C16.5852 23.1223 17.3197 22.8098 17.4795 22.1637L20.8281 8.63046ZM11.1961 20.0109L17.7381 13.7158C18.2177 13.2544 18.1211 12.462 17.5447 12.1292L15.6602 11.0412L9.1182 17.3363C8.63864 17.7978 8.73522 18.5901 9.31157 18.9229L11.1961 20.0109Z" fill="#282F65"/>
</svg>
