<svg width="19" height="19" viewBox="0 0 19 19" fill="none" xmlns="http://www.w3.org/2000/svg">
<path d="M8.99901 4.37688C6.44501 4.37688 4.37601 6.44688 4.37601 8.99988C4.37601 11.5539 6.44501 13.6239 8.99901 13.6239C11.551 13.6239 13.622 11.5539 13.622 8.99988C13.622 6.44688 11.551 4.37688 8.99901 4.37688ZM8.99901 12.0039C7.34001 12.0039 5.99501 10.6589 5.99501 9.00088C5.99501 7.34188 7.34001 5.99788 8.99901 5.99788C10.658 5.99788 12.001 7.34188 12.001 9.00088C12.001 10.6589 10.658 12.0039 8.99901 12.0039Z" fill="#3E3E3E"/>
<path d="M13.806 5.28488C14.4014 5.28488 14.884 4.80225 14.884 4.20688C14.884 3.61152 14.4014 3.12888 13.806 3.12888C13.2107 3.12888 12.728 3.61152 12.728 4.20688C12.728 4.80225 13.2107 5.28488 13.806 5.28488Z" fill="#3E3E3E"/>
<path d="M17.533 3.11088C17.064 1.90188 16.109 0.945883 14.9 0.478883C14.201 0.215883 13.462 0.0748827 12.714 0.0588827C11.751 0.0168827 11.446 0.00488281 9.00401 0.00488281C6.56201 0.00488281 6.24901 0.00488271 5.29401 0.0588827C4.54801 0.0738827 3.80901 0.214883 3.11001 0.478883C1.90001 0.945883 0.945014 1.90188 0.477014 3.11088C0.214014 3.81088 0.0730142 4.54888 0.0580142 5.29688C0.0150142 6.25888 0.00201416 6.56388 0.00201416 9.00688C0.00201416 11.4489 0.00201415 11.7599 0.0580142 12.7169C0.0730142 13.4649 0.214014 14.2029 0.477014 14.9039C0.946014 16.1119 1.90101 17.0679 3.11101 17.5359C3.80701 17.8079 4.54601 17.9619 5.29601 17.9859C6.25901 18.0279 6.56401 18.0409 9.00601 18.0409C11.448 18.0409 11.761 18.0409 12.716 17.9859C13.463 17.9709 14.202 17.8289 14.902 17.5669C16.111 17.0979 17.066 16.1429 17.535 14.9339C17.798 14.2339 17.939 13.4959 17.954 12.7479C17.997 11.7859 18.01 11.4809 18.01 9.03788C18.01 6.59488 18.01 6.28488 17.954 5.32788C17.941 4.56988 17.801 3.81888 17.533 3.11088ZM16.315 12.6429C16.308 13.2189 16.204 13.7899 16.004 14.3309C15.699 15.1179 15.078 15.7399 14.292 16.0419C13.757 16.2409 13.193 16.3449 12.622 16.3529C11.672 16.3969 11.404 16.4079 8.96801 16.4079C6.53001 16.4079 6.28101 16.4079 5.31301 16.3529C4.74401 16.3459 4.17801 16.2409 3.64401 16.0419C2.85501 15.7409 2.23001 15.1189 1.92501 14.3309C1.72901 13.7969 1.62301 13.2319 1.61401 12.6619C1.57101 11.7119 1.56101 11.4439 1.56101 9.00788C1.56101 6.57088 1.56101 6.32188 1.61401 5.35288C1.62101 4.77688 1.72501 4.20688 1.92501 3.66588C2.23001 2.87688 2.85501 2.25588 3.64401 1.95388C4.17801 1.75588 4.74401 1.65088 5.31301 1.64288C6.26401 1.59988 6.53101 1.58788 8.96801 1.58788C11.405 1.58788 11.655 1.58788 12.622 1.64288C13.193 1.64988 13.757 1.75488 14.292 1.95388C15.078 2.25688 15.699 2.87888 16.004 3.66588C16.2 4.19988 16.306 4.76488 16.315 5.33488C16.358 6.28588 16.369 6.55288 16.369 8.98988C16.369 11.4259 16.369 11.6879 16.326 12.6439H16.315V12.6429Z" fill="#3E3E3E"/>
</svg>
