<svg width="16" height="17" viewBox="0 0 16 17" fill="none" xmlns="http://www.w3.org/2000/svg">
<path fill-rule="evenodd" clip-rule="evenodd" d="M15.8281 1.63068C16.069 0.657163 14.8867 -0.0254565 14.164 0.669914L10.6602 4.04144L5.8475 1.26281C5.27115 0.930056 4.53663 1.24261 4.37678 1.88865L1.02816 15.4219C0.787282 16.3954 1.96962 17.078 2.69227 16.3827L6.19606 13.0111L11.0088 15.7898C11.5851 16.1225 12.3197 15.81 12.4795 15.1639L15.8281 1.63068ZM6.19606 13.0111L12.7381 6.71606C13.2177 6.25461 13.1211 5.46222 12.5447 5.12946L10.6602 4.04144L4.11819 10.3365C3.63863 10.798 3.73521 11.5904 4.31156 11.9231L6.19606 13.0111Z" fill="#282F65"/>
</svg>
