<svg width="13" height="13" viewBox="0 0 13 13" fill="none" xmlns="http://www.w3.org/2000/svg">
<path d="M5.99934 2.91808C4.29667 2.91808 2.91733 4.29808 2.91733 6.00008C2.91733 7.70275 4.29667 9.08275 5.99934 9.08275C7.70067 9.08275 9.08134 7.70275 9.08134 6.00008C9.08134 4.29808 7.70067 2.91808 5.99934 2.91808ZM5.99934 8.00275C4.89334 8.00275 3.99667 7.10609 3.99667 6.00075C3.99667 4.89475 4.89334 3.99875 5.99934 3.99875C7.10534 3.99875 8.00067 4.89475 8.00067 6.00075C8.00067 7.10609 7.10534 8.00275 5.99934 8.00275Z" fill="#AEAEAE"/>
<path d="M9.204 3.52342C9.60091 3.52342 9.92267 3.20166 9.92267 2.80475C9.92267 2.40784 9.60091 2.08608 9.204 2.08608C8.80709 2.08608 8.48534 2.40784 8.48534 2.80475C8.48534 3.20166 8.80709 3.52342 9.204 3.52342Z" fill="#AEAEAE"/>
<path d="M11.6887 2.07408C11.376 1.26808 10.7393 0.630751 9.93334 0.319418C9.46734 0.144085 8.97467 0.0500846 8.476 0.0394179C7.834 0.0114179 7.63067 0.00341797 6.00267 0.00341797C4.37467 0.00341797 4.166 0.0034179 3.52934 0.0394179C3.032 0.0494179 2.53934 0.143418 2.07334 0.319418C1.26667 0.630751 0.630002 1.26808 0.318002 2.07408C0.142668 2.54075 0.0486685 3.03275 0.0386685 3.53142C0.0100018 4.17275 0.00133514 4.37608 0.00133514 6.00475C0.00133514 7.63275 0.00133514 7.84008 0.0386685 8.47808C0.0486685 8.97675 0.142668 9.46875 0.318002 9.93608C0.630668 10.7414 1.26734 11.3788 2.074 11.6908C2.538 11.8721 3.03067 11.9748 3.53067 11.9908C4.17267 12.0188 4.376 12.0274 6.004 12.0274C7.632 12.0274 7.84067 12.0274 8.47734 11.9908C8.97534 11.9808 9.468 11.8861 9.93467 11.7114C10.7407 11.3988 11.3773 10.7621 11.69 9.95608C11.8653 9.48942 11.9593 8.99742 11.9693 8.49875C11.998 7.85742 12.0067 7.65408 12.0067 6.02542C12.0067 4.39675 12.0067 4.19008 11.9693 3.55208C11.9607 3.04675 11.8673 2.54608 11.6887 2.07408ZM10.8767 8.42875C10.872 8.81275 10.8027 9.19342 10.6693 9.55408C10.466 10.0788 10.052 10.4934 9.528 10.6948C9.17134 10.8274 8.79534 10.8968 8.41467 10.9021C7.78134 10.9314 7.60267 10.9388 5.97867 10.9388C4.35334 10.9388 4.18734 10.9388 3.542 10.9021C3.16267 10.8974 2.78534 10.8274 2.42934 10.6948C1.90334 10.4941 1.48667 10.0794 1.28334 9.55408C1.15267 9.19808 1.082 8.82142 1.076 8.44142C1.04734 7.80808 1.04067 7.62942 1.04067 6.00542C1.04067 4.38075 1.04067 4.21475 1.076 3.56875C1.08067 3.18475 1.15 2.80475 1.28334 2.44408C1.48667 1.91808 1.90334 1.50408 2.42934 1.30275C2.78534 1.17075 3.16267 1.10075 3.542 1.09542C4.176 1.06675 4.354 1.05875 5.97867 1.05875C7.60334 1.05875 7.77 1.05875 8.41467 1.09542C8.79534 1.10008 9.17134 1.17008 9.528 1.30275C10.052 1.50475 10.466 1.91942 10.6693 2.44408C10.8 2.80008 10.8707 3.17675 10.8767 3.55675C10.9053 4.19075 10.9127 4.36875 10.9127 5.99342C10.9127 7.61742 10.9127 7.79208 10.884 8.42942H10.8767V8.42875Z" fill="#AEAEAE"/>
</svg>
