<svg width="16" height="16" viewBox="0 0 16 16" fill="none" xmlns="http://www.w3.org/2000/svg">
<path d="M14 14H11.3333V9.5C11.3333 8.79427 10.5414 8.20387 9.83566 8.20387C9.12992 8.20387 8.66666 8.79427 8.66666 9.5V14H5.99999V6H8.66666V7.33333C9.10819 6.61905 10.2376 6.15818 11.0167 6.15818C12.6643 6.15818 14 7.51907 14 9.16667V14ZM4.66665 14H1.99998V6H4.66665V14ZM3.33332 2C4.0697 2 4.66666 2.59695 4.66666 3.33333C4.66666 4.06971 4.0697 4.66667 3.33332 4.66667C2.59694 4.66667 1.99999 4.06971 1.99999 3.33333C1.99999 2.59695 2.59694 2 3.33332 2Z" fill="#AEAEAE"/>
</svg>
