<svg width="92" height="32" viewBox="0 0 92 32" fill="none" xmlns="http://www.w3.org/2000/svg">
<path d="M35.8185 9.368V15.146H43.1355V18.0485H35.8185V26H32.1735V6.479H44.4855V9.368H35.8185ZM52.4376 20.087C51.4746 20.132 50.6646 20.2175 50.0076 20.3435C49.3506 20.4605 48.8241 20.6135 48.4281 20.8025C48.0321 20.9915 47.7486 21.212 47.5776 21.464C47.4066 21.716 47.3211 21.9905 47.3211 22.2875C47.3211 22.8725 47.4921 23.291 47.8341 23.543C48.1851 23.795 48.6396 23.921 49.1976 23.921C49.8816 23.921 50.4711 23.7995 50.9661 23.5565C51.4701 23.3045 51.9606 22.9265 52.4376 22.4225V20.087ZM44.7966 14.0795C46.3896 12.6215 48.3066 11.8925 50.5476 11.8925C51.3576 11.8925 52.0821 12.0275 52.7211 12.2975C53.3601 12.5585 53.9001 12.9275 54.3411 13.4045C54.7821 13.8725 55.1151 14.435 55.3401 15.092C55.5741 15.749 55.6911 16.469 55.6911 17.252V26H54.1791C53.8641 26 53.6211 25.955 53.4501 25.865C53.2791 25.766 53.1441 25.5725 53.0451 25.2845L52.7481 24.2855C52.3971 24.6005 52.0551 24.8795 51.7221 25.1225C51.3891 25.3565 51.0426 25.5545 50.6826 25.7165C50.3226 25.8785 49.9356 26 49.5216 26.081C49.1166 26.171 48.6666 26.216 48.1716 26.216C47.5866 26.216 47.0466 26.1395 46.5516 25.9865C46.0566 25.8245 45.6291 25.586 45.2691 25.271C44.9091 24.956 44.6301 24.5645 44.4321 24.0965C44.2341 23.6285 44.1351 23.084 44.1351 22.463C44.1351 22.112 44.1936 21.7655 44.3106 21.4235C44.4276 21.0725 44.6166 20.7395 44.8776 20.4245C45.1476 20.1095 45.4941 19.8125 45.9171 19.5335C46.3401 19.2545 46.8576 19.0115 47.4696 18.8045C48.0906 18.5975 48.8106 18.431 49.6296 18.305C50.4486 18.17 51.3846 18.089 52.4376 18.062V17.252C52.4376 16.325 52.2396 15.641 51.8436 15.2C51.4476 14.75 50.8761 14.525 50.1291 14.525C49.5891 14.525 49.1391 14.588 48.7791 14.714C48.4281 14.84 48.1176 14.984 47.8476 15.146C47.5776 15.299 47.3301 15.4385 47.1051 15.5645C46.8891 15.6905 46.6461 15.7535 46.3761 15.7535C46.1421 15.7535 45.9441 15.695 45.7821 15.578C45.6201 15.452 45.4896 15.308 45.3906 15.146L44.7966 14.0795ZM63.264 26.216C62.058 26.216 61.131 25.8785 60.483 25.2035C59.844 24.5195 59.5245 23.579 59.5245 22.382V14.6465H58.107C57.927 14.6465 57.774 14.588 57.648 14.471C57.522 14.354 57.459 14.1785 57.459 13.9445V12.6215L59.6865 12.257L60.3885 8.477C60.4335 8.297 60.519 8.1575 60.645 8.0585C60.771 7.9595 60.933 7.91 61.131 7.91H62.859V12.2705H66.558V14.6465H62.859V22.1525C62.859 22.5845 62.9625 22.922 63.1695 23.165C63.3855 23.408 63.678 23.5295 64.047 23.5295C64.254 23.5295 64.425 23.507 64.56 23.462C64.704 23.408 64.8255 23.354 64.9245 23.3C65.0325 23.246 65.127 23.1965 65.208 23.1515C65.289 23.0975 65.37 23.0705 65.451 23.0705C65.55 23.0705 65.631 23.0975 65.694 23.1515C65.757 23.1965 65.8245 23.2685 65.8965 23.3675L66.8955 24.9875C66.4095 25.3925 65.8515 25.6985 65.2215 25.9055C64.5915 26.1125 63.939 26.216 63.264 26.216ZM74.7164 11.933C75.7424 11.933 76.6739 12.0995 77.5109 12.4325C78.3569 12.7655 79.0769 13.238 79.6709 13.85C80.2739 14.462 80.7374 15.209 81.0614 16.091C81.3854 16.973 81.5474 17.9585 81.5474 19.0475C81.5474 20.1455 81.3854 21.1355 81.0614 22.0175C80.7374 22.8995 80.2739 23.651 79.6709 24.272C79.0769 24.893 78.3569 25.37 77.5109 25.703C76.6739 26.036 75.7424 26.2025 74.7164 26.2025C73.6814 26.2025 72.7409 26.036 71.8949 25.703C71.0489 25.37 70.3244 24.893 69.7214 24.272C69.1274 23.651 68.6639 22.8995 68.3309 22.0175C68.0069 21.1355 67.8449 20.1455 67.8449 19.0475C67.8449 17.9585 68.0069 16.973 68.3309 16.091C68.6639 15.209 69.1274 14.462 69.7214 13.85C70.3244 13.238 71.0489 12.7655 71.8949 12.4325C72.7409 12.0995 73.6814 11.933 74.7164 11.933ZM74.7164 23.6375C75.8684 23.6375 76.7189 23.2505 77.2679 22.4765C77.8259 21.7025 78.1049 20.5685 78.1049 19.0745C78.1049 17.5805 77.8259 16.442 77.2679 15.659C76.7189 14.876 75.8684 14.4845 74.7164 14.4845C73.5464 14.4845 72.6779 14.8805 72.1109 15.6725C71.5529 16.4555 71.2739 17.5895 71.2739 19.0745C71.2739 20.5595 71.5529 21.6935 72.1109 22.4765C72.6779 23.2505 73.5464 23.6375 74.7164 23.6375Z" fill="#282F65"/>
<path d="M83.6053 24.164C83.6053 23.885 83.6548 23.6195 83.7538 23.3675C83.8618 23.1155 84.0058 22.8995 84.1858 22.7195C84.3658 22.5395 84.5818 22.3955 84.8338 22.2875C85.0858 22.1795 85.3558 22.1255 85.6438 22.1255C85.9318 22.1255 86.1973 22.1795 86.4403 22.2875C86.6923 22.3955 86.9083 22.5395 87.0883 22.7195C87.2773 22.8995 87.4258 23.1155 87.5338 23.3675C87.6418 23.6195 87.6958 23.885 87.6958 24.164C87.6958 24.452 87.6418 24.722 87.5338 24.974C87.4258 25.217 87.2773 25.4285 87.0883 25.6085C86.9083 25.7885 86.6923 25.928 86.4403 26.027C86.1973 26.135 85.9318 26.189 85.6438 26.189C85.3558 26.189 85.0858 26.135 84.8338 26.027C84.5818 25.928 84.3658 25.7885 84.1858 25.6085C84.0058 25.4285 83.8618 25.217 83.7538 24.974C83.6548 24.722 83.6053 24.452 83.6053 24.164Z" fill="#FFA800"/>
<path fill-rule="evenodd" clip-rule="evenodd" d="M20.8281 8.63068C21.069 7.65716 19.8867 6.97454 19.164 7.66991L15.6602 11.0414L10.8475 8.26281C10.2711 7.93006 9.53663 8.24261 9.37678 8.88865L6.02816 22.4219C5.78728 23.3954 6.96962 24.078 7.69227 23.3827L11.1961 20.0111L16.0088 22.7898C16.5851 23.1225 17.3197 22.81 17.4795 22.1639L20.8281 8.63068ZM11.1961 20.0111L17.7381 13.7161C18.2177 13.2546 18.1211 12.4622 17.5447 12.1295L15.6602 11.0414L9.11819 17.3365C8.63863 17.798 8.73521 18.5904 9.31156 18.9231L11.1961 20.0111Z" fill="#282F65"/>
</svg>
