<svg width="48" height="48" viewBox="0 0 48 48" fill="none" xmlns="http://www.w3.org/2000/svg">
<rect width="48" height="48" rx="4" fill="#C0DFF8"/>
<path fill-rule="evenodd" clip-rule="evenodd" d="M33.9964 20.3751H29.7618C27.7911 20.3786 26.1947 21.9351 26.1911 23.8566C26.1884 25.7823 27.7867 27.3458 29.7618 27.3484H34V27.6543C34 31.0136 31.9636 33 28.5173 33H19.4836C16.0364 33 14 31.0136 14 27.6543V20.3379C14 16.9786 16.0364 15 19.4836 15H28.5138C31.96 15 33.9964 16.9786 33.9964 20.3379V20.3751ZM18.7396 20.3673H24.3796H24.3831H24.3902C24.8124 20.3656 25.1538 20.0302 25.152 19.6177C25.1502 19.206 24.8053 18.8732 24.3831 18.8749H18.7396C18.32 18.8766 17.9796 19.2086 17.9778 19.6185C17.976 20.0302 18.3173 20.3656 18.7396 20.3673Z" fill="#282F65"/>
<path d="M28.0374 24.2967C28.2465 25.2479 29.0805 25.9171 30.0326 25.8997H33.2825C33.6787 25.8997 34 25.5716 34 25.1661V22.6345C33.9991 22.2298 33.6787 21.9009 33.2825 21.9H29.9561C28.8731 21.9035 27.9983 22.8025 28 23.9103C28 24.04 28.0128 24.1696 28.0374 24.2967Z" fill="white"/>
<circle cx="30" cy="23.9" r="1" fill="#282F65"/>
</svg>
