<svg width="48" height="48" viewBox="0 0 48 48" fill="none" xmlns="http://www.w3.org/2000/svg">
<rect width="48" height="48" rx="4" fill="#C0DFF8"/>
<path d="M33.23 26.3701C33.0359 26.0701 32.7599 25.7701 32.4022 25.5801C32.1161 25.4401 31.9321 25.2101 31.7686 24.9401C31.2474 24.0801 31.554 22.9501 32.4227 22.4401C33.4446 21.8701 33.7717 20.6001 33.1789 19.6101L32.4942 18.4301C31.9117 17.4401 30.6343 17.0901 29.6225 17.6701C28.7232 18.1501 27.5684 17.8301 27.0472 16.9801C26.8837 16.7001 26.7917 16.4001 26.8121 16.1001C26.8428 15.7101 26.7202 15.3401 26.5362 15.0401C26.1581 14.4201 25.4734 14.0001 24.7171 14.0001H23.2762C22.5301 14.0201 21.8454 14.4201 21.4673 15.0401C21.2731 15.3401 21.1607 15.7101 21.1811 16.1001C21.2016 16.4001 21.1096 16.7001 20.9461 16.9801C20.4249 17.8301 19.2701 18.1501 18.381 17.6701C17.359 17.0901 16.0918 17.4401 15.4991 18.4301L14.8144 19.6101C14.2318 20.6001 14.5589 21.8701 15.5706 22.4401C16.4393 22.9501 16.7459 24.0801 16.2349 24.9401C16.0611 25.2101 15.8772 25.4401 15.591 25.5801C15.2436 25.7701 14.937 26.0701 14.7735 26.3701C14.3953 26.9901 14.4158 27.7701 14.7939 28.4201L15.4991 29.6201C15.8772 30.2601 16.5823 30.6601 17.3181 30.6601C17.6656 30.6601 18.0744 30.5601 18.4014 30.3601C18.6569 30.1901 18.9635 30.1301 19.3007 30.1301C20.3125 30.1301 21.1607 30.9601 21.1811 31.9501C21.1811 33.1001 22.1213 34.0001 23.3068 34.0001H24.6967C25.8719 34.0001 26.8121 33.1001 26.8121 31.9501C26.8428 30.9601 27.691 30.1301 28.7028 30.1301C29.0298 30.1301 29.3364 30.1901 29.6021 30.3601C29.9291 30.5601 30.3277 30.6601 30.6854 30.6601C31.4109 30.6601 32.1161 30.2601 32.4942 29.6201L33.2096 28.4201C33.5775 27.7501 33.6081 26.9901 33.23 26.3701Z" fill="#282F65"/>
<path d="M24.012 26.8301C22.4075 26.8301 21.1096 25.5801 21.1096 24.0101C21.1096 22.4401 22.4075 21.1801 24.012 21.1801C25.6164 21.1801 26.8837 22.4401 26.8837 24.0101C26.8837 25.5801 25.6164 26.8301 24.012 26.8301Z" fill="white"/>
</svg>
