<svg width="48" height="48" viewBox="0 0 48 48" fill="none" xmlns="http://www.w3.org/2000/svg">
<rect width="48" height="48" rx="24" fill="#C0DFF8"/>
<path d="M18 31.2C16.3333 31.2 15.06 30.5733 14.18 29.32C13.3 28.0533 12.86 26.2533 12.86 23.92C12.86 21.56 13.3 19.7667 14.18 18.54C15.06 17.3133 16.3333 16.7 18 16.7C19.68 16.7 20.9533 17.3133 21.82 18.54C22.7 19.7667 23.14 21.5533 23.14 23.9C23.14 26.2467 22.7 28.0533 21.82 29.32C20.94 30.5733 19.6667 31.2 18 31.2ZM18 29.1C18.9067 29.1 19.5733 28.6867 20 27.86C20.44 27.02 20.66 25.7 20.66 23.9C20.66 22.1133 20.44 20.82 20 20.02C19.5733 19.2067 18.9067 18.8 18 18.8C17.1067 18.8 16.44 19.2067 16 20.02C15.56 20.82 15.34 22.1133 15.34 23.9C15.34 25.7 15.56 27.02 16 27.86C16.44 28.6867 17.1067 29.1 18 29.1ZM25.5922 31V29.1L30.1522 24.24C30.7655 23.5733 31.2055 22.9867 31.4722 22.48C31.7389 21.96 31.8722 21.4333 31.8722 20.9C31.8722 19.54 31.0522 18.86 29.4122 18.86C28.1322 18.86 26.9522 19.34 25.8722 20.3L25.0122 18.38C25.5722 17.8733 26.2722 17.4667 27.1122 17.16C27.9522 16.8533 28.8255 16.7 29.7322 16.7C31.2389 16.7 32.3922 17.04 33.1922 17.72C34.0055 18.4 34.4122 19.3733 34.4122 20.64C34.4122 21.4933 34.2055 22.3133 33.7922 23.1C33.3922 23.8867 32.7589 24.7333 31.8922 25.64L28.7922 28.88H34.9522V31H25.5922Z" fill="#282F65"/>
</svg>
