<svg width="48" height="48" viewBox="0 0 48 48" fill="none" xmlns="http://www.w3.org/2000/svg">
<rect width="48" height="48" rx="24" fill="#C0DFF8"/>
<path d="M18 31.2C16.3333 31.2 15.06 30.5733 14.18 29.32C13.3 28.0533 12.86 26.2533 12.86 23.92C12.86 21.56 13.3 19.7667 14.18 18.54C15.06 17.3133 16.3333 16.7 18 16.7C19.68 16.7 20.9533 17.3133 21.82 18.54C22.7 19.7667 23.14 21.5533 23.14 23.9C23.14 26.2467 22.7 28.0533 21.82 29.32C20.94 30.5733 19.6667 31.2 18 31.2ZM18 29.1C18.9067 29.1 19.5733 28.6867 20 27.86C20.44 27.02 20.66 25.7 20.66 23.9C20.66 22.1133 20.44 20.82 20 20.02C19.5733 19.2067 18.9067 18.8 18 18.8C17.1067 18.8 16.44 19.2067 16 20.02C15.56 20.82 15.34 22.1133 15.34 23.9C15.34 25.7 15.56 27.02 16 27.86C16.44 28.6867 17.1067 29.1 18 29.1ZM29.7122 31.2C28.7522 31.2 27.8322 31.06 26.9522 30.78C26.0855 30.4867 25.3655 30.0933 24.7922 29.6L25.6322 27.64C26.8322 28.5733 28.1655 29.04 29.6322 29.04C31.4322 29.04 32.3322 28.3333 32.3322 26.92C32.3322 26.2533 32.1055 25.76 31.6522 25.44C31.2122 25.1067 30.5655 24.94 29.7122 24.94H27.4522V22.82H29.4722C30.2189 22.82 30.8122 22.64 31.2522 22.28C31.6922 21.9067 31.9122 21.3933 31.9122 20.74C31.9122 20.1267 31.7055 19.66 31.2922 19.34C30.8922 19.02 30.3055 18.86 29.5322 18.86C28.1455 18.86 26.9255 19.34 25.8722 20.3L25.0322 18.38C25.5922 17.8467 26.2922 17.4333 27.1322 17.14C27.9722 16.8467 28.8455 16.7 29.7522 16.7C31.2189 16.7 32.3589 17.0333 33.1722 17.7C33.9855 18.3533 34.3922 19.2667 34.3922 20.44C34.3922 21.2 34.1989 21.8667 33.8122 22.44C33.4255 23.0133 32.8989 23.4267 32.2322 23.68C33.0455 23.9067 33.6789 24.3267 34.1322 24.94C34.5855 25.54 34.8122 26.2733 34.8122 27.14C34.8122 28.3933 34.3589 29.3867 33.4522 30.12C32.5455 30.84 31.2989 31.2 29.7122 31.2Z" fill="#282F65"/>
</svg>
