<svg width="48" height="48" viewBox="0 0 48 48" fill="none" xmlns="http://www.w3.org/2000/svg">
<rect width="48" height="48" rx="24" fill="#C0DFF8"/>
<path d="M18 31.2C16.3333 31.2 15.06 30.5733 14.18 29.32C13.3 28.0533 12.86 26.2533 12.86 23.92C12.86 21.56 13.3 19.7667 14.18 18.54C15.06 17.3133 16.3333 16.7 18 16.7C19.68 16.7 20.9533 17.3133 21.82 18.54C22.7 19.7667 23.14 21.5533 23.14 23.9C23.14 26.2467 22.7 28.0533 21.82 29.32C20.94 30.5733 19.6667 31.2 18 31.2ZM18 29.1C18.9067 29.1 19.5733 28.6867 20 27.86C20.44 27.02 20.66 25.7 20.66 23.9C20.66 22.1133 20.44 20.82 20 20.02C19.5733 19.2067 18.9067 18.8 18 18.8C17.1067 18.8 16.44 19.2067 16 20.02C15.56 20.82 15.34 22.1133 15.34 23.9C15.34 25.7 15.56 27.02 16 27.86C16.44 28.6867 17.1067 29.1 18 29.1ZM26.1722 31V28.88H29.3522V19.82L26.8922 21.3L25.8922 19.42L30.0922 16.9H31.9122V28.88H34.8922V31H26.1722Z" fill="#282F65"/>
</svg>
